PathFileType	4	(X/Y/Z)	E:\3-PhD\Data\MocapData\ElaboratedData\009\pre\dynamicElaborations\Run_baseline3\Run_baseline3.trc
DataRate	CameraRate	NumFrames	NumMarkers	Units	OrigDataRate	DataStartFrame
200	200	5	54	mm	200	687
Frame#	Time	FHD			LBHD			RBHD			C7			T10			CLAV			LSHO			LUUPA			LMUPA			LDUPA			LLEP			LMEP			LRAD			LUL			LRFIN			RSHO			RUPA1			RMUPA			RDUPA			RLEP			RMEP			RRAD			RUL			RUFIN			RASI			USACR			LSACR			RSACR			LTHI1			LTHI2			LTHI3			LTHI4			LTIB1			LTIB2			LTIB3			LTIB4			LLMAL			LHEE			LMT1			LMT2			RTHI			RTHI2			RTHI3			RTHI4			RLFC			RTIB1			RTIB2			RTIB3			RTIB4			RLMAL			RHEE			RMT1			RMT2			RMT5		
		X1	Y1	Z1	X2	Y2	Z2	X3	Y3	Z3	X4	Y4	Z4	X5	Y5	Z5	X6	Y6	Z6	X7	Y7	Z7	X8	Y8	Z8	X9	Y9	Z9	X10	Y10	Z10	X11	Y11	Z11	X12	Y12	Z12	X13	Y13	Z13	X14	Y14	Z14	X15	Y15	Z15	X16	Y16	Z16	X17	Y17	Z17	X18	Y18	Z18	X19	Y19	Z19	X20	Y20	Z20	X21	Y21	Z21	X22	Y22	Z22	X23	Y23	Z23	X24	Y24	Z24	X25	Y25	Z25	X26	Y26	Z26	X27	Y27	Z27	X28	Y28	Z28	X29	Y29	Z29	X30	Y30	Z30	X31	Y31	Z31	X32	Y32	Z32	X33	Y33	Z33	X34	Y34	Z34	X35	Y35	Z35	X36	Y36	Z36	X37	Y37	Z37	X38	Y38	Z38	X39	Y39	Z39	X40	Y40	Z40	X41	Y41	Z41	X42	Y42	Z42	X43	Y43	Z43	X44	Y44	Z44	X45	Y45	Z45	X46	Y46	Z46	X47	Y47	Z47	X48	Y48	Z48	X49	Y49	Z49	X50	Y50	Z50	X51	Y51	Z51	X52	Y52	Z52	X53	Y53	Z53	X54	Y54	Z54	

701	3.500000	-595.085156	1336.571897	631.841608	-712.789685	1358.027340	476.084327	-738.803360	1331.853864	599.587878	-795.313007	1247.299948	523.536224	-1051.119290	1003.408842	505.605084	-733.021339	1102.776737	515.579623	-713.085810	1187.980451	405.452170	-660.121105	1045.457997	289.238690	-617.331224	1039.075757	308.929197	-620.361976	990.568482	274.347531	-549.304236	888.000153	267.898677	-570.824679	846.218437	326.609635	-395.617514	1005.950572	434.078139	-341.705639	962.151787	407.062805	-355.536847	1063.926277	419.293140	-746.482992	1132.115584	685.082102	-894.626944	1032.962367	755.854942	-904.621179	993.115023	730.456157	-952.244526	997.574047	766.795095	-1074.854233	938.228956	774.612504	-1102.913337	958.461093	712.007572	-1081.924210	682.639509	724.365815	-1148.051939	692.721776	741.412506	-1085.464508	625.532938	776.892425	-943.138095	763.518928	577.992325	-1099.684258	897.286821	484.893578	-1102.359095	876.467503	448.583679	-1108.920240	857.671622	503.529888	-852.902647	679.598862	217.012550	-781.911238	632.524163	207.908811	-744.645797	648.887227	233.791912	-777.791511	573.080830	191.973733	-697.192385	302.229789	141.366215	-751.786063	307.382126	73.864994	-724.768822	280.567921	96.162195	-759.873813	201.509570	90.590649	-856.666717	99.148110	8.901563	-946.427925	53.971175	14.971634	-736.208000	54.863485	85.976700	-721.058098	57.315681	39.119462	-882.589865	581.480800	643.293876	-823.981280	578.425140	670.560314	-805.591483	607.628303	679.947497	-764.318272	518.513793	656.584677	-672.425458	476.011178	650.966144	-662.766514	350.047427	491.083630	-764.442735	320.422241	456.594409	-718.417954	304.557241	445.487159	-710.002196	286.998399	391.452674	-804.446279	245.836018	345.554205	-848.556435	265.849977	257.639821	-649.562735	171.302068	311.212432	-670.324389	156.675502	343.715898	-736.650933	136.135031	360.258230	
702	3.505000	-572.871866	1333.581447	640.247728	-688.637820	1355.206641	483.093845	-716.115982	1329.106813	606.191745	-771.782696	1244.968351	530.329486	-1028.909493	1002.294832	511.861302	-710.435211	1099.654155	522.614560	-687.541634	1185.834763	414.325279	-627.476495	1047.043501	299.585449	-585.444330	1040.971904	321.132388	-586.018005	993.035349	285.691258	-512.970935	891.573987	279.978823	-534.830881	849.161377	338.591422	-366.414156	1012.871802	449.992851	-310.739662	970.713969	423.730467	-327.947285	1071.932822	436.086630	-724.455756	1129.053746	692.057963	-874.115966	1030.356869	760.997670	-884.099157	990.767726	735.285707	-932.215857	995.384381	771.066842	-1055.191032	936.149603	776.552081	-1082.354708	957.515812	714.031381	-1066.719366	681.730332	722.453581	-1132.789967	692.785177	739.235233	-1071.665940	623.890182	774.161022	-920.392843	761.875831	581.696682	-1078.115776	896.131425	491.395800	-1081.328115	875.438665	455.164516	-1087.255588	856.508842	510.159744	-835.976525	679.455414	218.904466	-765.859014	631.450690	208.521675	-728.139206	646.953350	234.382625	-762.810938	572.127143	191.694395	-689.601307	298.480493	138.663661	-745.096870	305.071859	72.073533	-718.560413	277.506411	94.254334	-755.755383	199.475810	89.119098	-856.154473	99.711608	9.327682	-946.584187	55.063782	16.138208	-736.055486	54.789988	85.778965	-721.143348	57.156278	38.687687	-860.755684	581.989535	648.254995	-802.370879	579.966291	675.891525	-784.613796	609.562682	685.467670	-741.342179	521.315501	662.103095	-648.061033	480.473098	657.258415	-628.201861	351.701422	499.530486	-727.381277	317.002312	462.518527	-680.329519	302.949201	452.812919	-669.556546	285.412899	399.308046	-760.394210	238.743136	351.497277	-802.739856	255.280190	262.158419	-601.461285	171.251487	323.423827	-622.471748	156.029016	355.317243	-688.174406	132.496736	370.139745	
703	3.510000	-550.653476	1331.260932	649.164459	-664.602264	1353.040961	490.721221	-693.407608	1327.008375	613.410195	-748.347084	1243.171860	537.748437	-1006.517870	1001.556128	518.303554	-687.824794	1097.079680	530.188816	-662.300101	1184.322163	423.695037	-595.871951	1049.369302	310.343929	-554.547564	1043.485831	333.532402	-552.863410	996.258872	297.236279	-477.977365	895.943403	291.839695	-500.123492	852.760270	350.273128	-337.783541	1019.464605	465.561636	-280.609374	978.873146	439.882418	-300.837419	1079.464061	452.527570	-702.541370	1126.612358	699.625445	-853.709713	1028.623680	766.781621	-863.668808	989.254925	740.930774	-912.306593	994.159505	776.008480	-1035.639830	935.044436	779.126354	-1061.959571	957.676356	716.785288	-1050.886472	682.001759	720.299053	-1116.885497	693.797569	737.059886	-1056.859225	623.282694	770.970653	-897.493696	760.778195	585.525608	-1056.317716	895.469655	497.937079	-1060.019256	874.896585	461.768194	-1065.399830	855.848233	516.794582	-819.301197	679.406852	220.901181	-750.232476	630.328610	209.181399	-712.028395	644.929138	234.923792	-748.408837	571.146138	191.538867	-682.593266	294.902074	135.971473	-739.019069	302.832423	70.364341	-712.881442	274.611493	92.364885	-751.947576	197.575402	87.822914	-855.679578	100.432531	9.925801	-946.720886	56.349995	17.512852	-735.782608	54.637817	85.565962	-721.189715	56.962903	38.255636	-839.055613	582.645133	653.245420	-780.867763	581.552137	681.222127	-763.693823	611.478337	690.927000	-718.647496	524.039297	667.547304	-624.104976	484.676311	663.423007	-593.886236	353.305028	508.257120	-690.164374	313.489931	468.950020	-642.281632	301.329846	460.773081	-629.105023	283.780564	407.899631	-715.904724	231.717094	358.215736	-756.256990	244.865864	267.617190	-553.605575	171.426552	336.791815	-574.825550	155.618304	368.020315	-639.753707	129.160150	381.112933	
704	3.515000	-528.429956	1329.654331	658.614290	-640.663498	1351.534602	498.972430	-670.677017	1325.595659	621.255998	-725.001194	1241.917377	545.798884	-983.919978	1001.205046	524.903846	-665.148850	1095.077807	538.337058	-637.377044	1183.444551	433.530793	-565.418873	1052.332088	321.395415	-524.727742	1046.537117	345.999832	-521.000550	1000.124082	308.862366	-444.384003	901.009409	303.380458	-466.752716	856.901548	361.513470	-309.713361	1025.628879	480.726548	-251.292465	986.514695	455.440007	-274.176458	1086.431214	468.581316	-680.740137	1124.796368	707.820933	-833.398961	1027.688635	773.189853	-843.325652	988.513198	747.308649	-892.472074	993.765948	781.600371	-1016.197172	934.869966	782.334371	-1041.718143	958.890218	720.268293	-1034.393861	683.398392	718.033217	-1100.314216	695.700015	735.014031	-1041.005616	623.677642	767.473543	-874.462166	760.202824	589.503440	-1034.262320	895.301240	504.469451	-1038.391620	874.856137	468.337694	-1043.333614	855.681018	523.370409	-802.917382	679.285127	222.980498	-735.106558	628.969602	209.836472	-696.354681	642.650679	235.271460	-734.690816	569.935531	191.548915	-676.125321	291.513381	133.388563	-733.493113	300.709858	68.820737	-707.686384	271.914212	90.576083	-748.432694	195.829185	86.738494	-855.239354	101.304842	10.664833	-946.841851	57.844305	19.034947	-735.416632	54.428995	85.336354	-721.197868	56.755253	37.817926	-817.471545	583.450031	658.279274	-759.448481	583.171174	686.555527	-742.794594	613.365646	696.328888	-696.221668	526.646949	672.923739	-600.563568	488.548485	669.454494	-559.901634	354.803984	517.302756	-652.885208	309.950491	475.892224	-604.370633	299.721647	469.355670	-588.743864	282.134904	417.251618	-671.105925	224.865477	365.709476	-709.206849	234.768107	274.021434	-506.163039	171.828992	351.324721	-527.579342	155.449354	381.816831	-591.604840	126.174985	393.156056	
705	3.520000	-506.212187	1328.788501	668.615098	-616.810396	1350.682531	507.847170	-647.936836	1324.889319	629.735301	-701.742857	1241.206816	554.478988	-961.103412	1001.245667	531.650701	-642.375100	1093.671611	547.089361	-612.769796	1183.202634	443.808226	-536.181689	1055.832152	332.611471	-496.039198	1050.048867	358.419544	-490.495387	1004.514221	320.454627	-412.236434	906.657548	314.516729	-434.760880	861.470868	372.200622	-282.198715	1031.260735	495.425247	-222.773619	993.517667	470.329861	-247.937996	1092.737237	484.203857	-659.051252	1123.596694	716.664448	-813.181771	1027.493821	780.201853	-823.066150	988.488257	754.351848	-872.687209	994.101193	787.816245	-996.866006	935.573927	786.153109	-1021.613912	961.075803	724.441273	-1017.212590	685.847162	715.814229	-1083.062580	698.424572	733.208391	-1024.110629	625.036230	763.857510	-851.320179	760.115709	593.658982	-1011.930438	895.615671	510.969665	-1016.416451	875.318646	474.842766	-1021.042919	855.990601	529.852170	-786.826951	679.012425	225.148815	-720.504275	627.295986	210.481175	-681.127537	640.044417	235.370869	-721.691460	568.412956	191.778514	-670.150548	288.350707	131.028985	-728.444865	298.770158	67.532246	-702.922826	269.461836	88.984984	-745.188831	194.280944	85.902701	-854.819181	102.342160	11.516878	-946.940186	59.583280	20.650267	-734.981283	54.180009	85.100795	-721.170134	56.549789	37.392176	-795.983797	584.409426	663.377881	-738.087522	584.817542	691.903724	-721.878672	615.221141	701.685367	-674.047926	529.107952	678.247409	-577.434055	492.025723	675.347570	-526.321169	356.132825	526.705604	-615.643002	306.437489	483.338462	-566.693525	298.138966	478.540462	-548.580795	280.504978	427.364136	-626.159373	218.286577	373.993452	-661.722082	225.119086	281.371074	-459.282925	172.448319	366.979484	-480.908262	155.517720	396.666743	-543.924089	123.565273	406.217696	
